<?xml version="1.0" encoding="UTF-8"?>
<svg xmlns="http://www.w3.org/2000/svg" xmlns:xlink="http://www.w3.org/1999/xlink" width="96pt" height="96pt" viewBox="0 0 96 96" version="1.1">
    <g id="surface1">
        <path style=" stroke:none;fill-rule:nonzero;fill:#BDBDBD;fill-opacity:1;" d="M 56 38 L 85.15625 55.984375 C 81.492188 73.140625 66.25 86 48 86 C 27.015625 86 10 68.984375 10 48 C 10 46.648438 10.070313 45.320313 10.210938 44.007813 L 31.9375 38 Z "/>
        <path style=" stroke:none;fill-rule:nonzero;fill:#9E9E9E;fill-opacity:1;" d="M 48 10 C 38.898438 10 30.546875 13.210938 24 18.546875 L 20 26 L 20 32 L 36 32 L 42 42 L 48 42 L 50 40 L 60 40 L 64 44 L 64 50 L 70.015625 59.773438 C 72.570313 61.625 74.960938 62 76.25 62 C 79.921875 62 82.992188 58.945313 85.15625 55.984375 C 85.71875 53.390625 86 50.757813 86 48 C 86 27.015625 68.984375 10 48 10 Z "/>
        <path style=" stroke:none;fill-rule:nonzero;fill:#757575;fill-opacity:1;" d="M 10.210938 44.007813 C 10.632813 50.726563 15.289063 60 22 60 C 23.25 60 24 60.726563 24 62 C 24 67.25 28.5 70 32.5 70 C 39.25 70 40.625 68.234375 41.75 67.25 C 43.75 65.5 44 61.75 44 60 C 44 56 42 56 42 52 C 42 51.03125 42 48 46 48 C 47.203125 48 47.757813 45.8125 49.78125 43.78125 C 50.554688 43.007813 51.9375 42 53 42 C 56 42 56 44 56 46 C 56 54 63.539063 54.898438 63.890625 55.828125 C 64.25 56.75 64 60 68.75 60 C 70.75 60 72 58.929688 72 58 C 72 56 70.648438 55.492188 70 55.25 C 69.296875 54.984375 68 54 68 52 C 68 50.5 69 50 71 50 C 74 50 73 52 76.25 52 C 77.453125 52 80 51.5 80 47.25 C 80 44.757813 77.75 43.828125 76.25 43.25 C 74.625 42.617188 73.398438 41.8125 71.5 38.25 C 70.171875 35.757813 64.507813 33.9375 64 32 C 62.5 26.25 59.867188 24 56 24 C 53.65625 24 51.328125 25.570313 50.625 27.71875 C 49.976563 29.679688 49.984375 31.46875 49.984375 32.953125 C 49.984375 34.25 49.78125 36 49.125 36.65625 C 48.257813 37.53125 47.28125 38.039063 46 38 C 43.601563 37.921875 42 36.25 42 34.25 C 42 31.25 46 30 46 25.75 C 46 23 44.15625 21.515625 42.390625 20.59375 C 41.296875 20.21875 40.15625 20 39 20 C 36 20 30.929688 19.539063 24.640625 25.820313 C 23.679688 26.789063 22.898438 28 22.601563 28 C 21.09375 28 22.789063 21.507813 24 18.546875 C 16.445313 24.726563 11.273438 33.773438 10.210938 44.007813 Z "/>
        <path style=" stroke:none;fill-rule:nonzero;fill:#757575;fill-opacity:1;" d="M 79.328125 31.835938 C 78.109375 29.148438 75.625 27.492188 73.789063 28.140625 C 71.945313 28.78125 71.445313 31.476563 72.671875 34.164063 C 73.890625 36.84375 76.375 38.507813 78.210938 37.859375 C 80.054688 37.21875 80.554688 34.523438 79.328125 31.835938 Z "/>
        <path style=" stroke:none;fill-rule:nonzero;fill:#838383;fill-opacity:1;" d="M 22 38 C 22 39.101563 21.101563 40 20 40 C 18.898438 40 18 39.101563 18 38 C 18 36.898438 18.898438 36 20 36 C 21.101563 36 22 36.898438 22 38 Z "/>
        <path style=" stroke:none;fill-rule:nonzero;fill:#838383;fill-opacity:1;" d="M 28 47 C 28 48.65625 26.65625 50 25 50 C 23.34375 50 22 48.65625 22 47 C 22 45.34375 23.34375 44 25 44 C 26.65625 44 28 45.34375 28 47 Z "/>
        <path style=" stroke:none;fill-rule:nonzero;fill:#838383;fill-opacity:1;" d="M 38 42 C 38 44.210938 36.210938 46 34 46 C 31.789063 46 30 44.210938 30 42 C 30 39.789063 31.789063 38 34 38 C 36.210938 38 38 39.789063 38 42 Z "/>
    </g>
</svg>
